<svg version="1.1" preserveAspectRatio="none" xmlns="http://www.w3.org/2000/svg" width="500" height="500" viewBox="0 0 500 500"><rect width="100%" height="100%" fill="#F3F3F3" fill-opacity="1"/><svg viewBox="403.8036 446.9554 300.9133 180" width="333" height="199.19358831929333" x="83.5px" y="150.4032px" xmlns="http://www.w3.org/2000/svg" xmlns:xlink="http://www.w3.org/1999/xlink" preserveAspectRatio="none"><defs></defs><style>.companyName {fill:#1e1e1e;fill-opacity:1;}.icon1 {fill:#1E1E1E;fill-opacity:1;}.icon3-str {stroke:#848383;stroke-opacity:1;}.shapeStroke-str {stroke:#949393;stroke-opacity:1;}</style><g opacity="1" transform="rotate(0 486.8739 586.9554)">
<svg width="134.7727" height="1" x="486.8739" y="586.9554" version="1.1" preserveAspectRatio="none" viewBox="0 0 134.7727 1">
  <rect x="0" y="0" width="134.7727" height="1" class="icon1 shapeStroke-str" style="stroke-width:0;" rx="0%" ry="0%" />
</svg>
</g><g opacity="1" transform="rotate(0 486.8739 580.9554)">
<svg width="134.7727" height="2" x="486.8739" y="580.9554" version="1.1" preserveAspectRatio="none" viewBox="0 0 134.7727 2">
  <rect x="0" y="0" width="134.7727" height="2" class="icon1 shapeStroke-str" style="stroke-width:0;" rx="0%" ry="0%" />
</svg>
</g><g opacity="1" transform="rotate(0 403.8036 602.9554)">
<svg width="300.9133" height="24" x="403.8036" y="602.9554" version="1.1" preserveAspectRatio="none" viewBox="4.52 -29.64 380.12 30.32">
  <g transform="matrix(1 0 0 1 0 0)" class="companyName"><path id="id-6izo4zJp15" d="M15.16-14.44Q17.72-13.68 19.30-11.88Q20.88-10.08 20.88-7.56L20.88-7.56Q20.88-5.12 19.64-3.40Q18.40-1.68 16.36-0.84Q14.32 0 11.92 0L11.92 0L4.52 0L4.52-28.40L10.80-28.40Q19.44-28.40 19.44-21.20L19.44-21.20Q19.44-18.84 18.34-17.06Q17.24-15.28 15.16-14.44L15.16-14.44ZM6.48-26.52L6.48-15.12L11.72-15.12Q14.60-15.12 16.02-16.68Q17.44-18.24 17.44-20.84L17.44-20.84Q17.44-23.76 15.72-25.14Q14-26.52 10.88-26.52L10.88-26.52L6.48-26.52ZM11.84-1.80Q14.88-1.80 16.88-3.28Q18.88-4.76 18.88-7.48L18.88-7.48Q18.88-10.36 16.74-11.80Q14.60-13.24 11.72-13.24L11.72-13.24L6.48-13.24L6.48-1.80L11.84-1.80Z M30.12-28.40L47.64-28.40L47.64-26.52L32.08-26.52L32.08-15.24L46.08-15.24L46.08-13.36L32.08-13.36L32.08-1.88L48.20-1.88L48.20 0L30.12 0L30.12-28.40Z M71.88-25.20Q70.44-25.88 68.68-26.36Q66.92-26.84 65.24-26.84L65.24-26.84Q62.44-26.84 60.76-25.46Q59.08-24.08 59.08-21.92L59.08-21.92Q59.08-20.40 59.98-19.34Q60.88-18.28 62.28-17.58Q63.68-16.88 65.88-16.04L65.88-16.04Q68.28-15.16 69.86-14.24Q71.44-13.32 72.52-11.74Q73.60-10.16 73.60-7.68L73.60-7.68Q73.60-5.32 72.48-3.50Q71.36-1.68 69.34-0.68Q67.32 0.32 64.72 0.32L64.72 0.32Q60.20 0.32 55.76-2.60L55.76-2.60L56.68-4.20Q58.16-3.08 60.32-2.24Q62.48-1.40 64.52-1.40L64.52-1.40Q66.32-1.40 67.94-2.10Q69.56-2.80 70.58-4.22Q71.60-5.64 71.60-7.64L71.60-7.64Q71.60-9.52 70.66-10.80Q69.72-12.08 68.30-12.86Q66.88-13.64 64.72-14.44L64.72-14.44Q62.32-15.32 60.76-16.14Q59.20-16.96 58.14-18.32Q57.08-19.68 57.08-21.72L57.08-21.72Q57.08-23.72 58.10-25.26Q59.12-26.80 60.94-27.66Q62.76-28.52 65-28.56L65-28.56Q66.92-28.56 68.98-28.04Q71.04-27.52 72.64-26.72L72.64-26.72L71.88-25.20Z M80.24-28.40L98.84-28.40L98.84-26.52L90.48-26.52L90.48 0L88.52 0L88.52-26.52L80.24-26.52L80.24-28.40Z M142.28-1.88Q140.72-0.92 138.76-0.30Q136.80 0.32 134.56 0.32L134.56 0.32Q130.28 0.32 127-1.60Q123.72-3.52 121.90-6.80Q120.08-10.08 120.08-14L120.08-14Q120.08-18.12 121.96-21.48Q123.84-24.84 127.12-26.78Q130.40-28.72 134.40-28.72L134.40-28.72Q138.60-28.72 142.16-26.56L142.16-26.56L141.32-24.76Q137.96-26.84 134.44-26.84L134.44-26.84Q131.12-26.84 128.28-25.14Q125.44-23.44 123.78-20.50Q122.12-17.56 122.12-14.08L122.12-14.08Q122.12-10.64 123.64-7.78Q125.16-4.92 127.96-3.24Q130.76-1.56 134.44-1.56L134.44-1.56Q138.12-1.56 141.36-3.60L141.36-3.60L142.28-1.88Z M169.72 0L167.44 0L160-12.08Q159.16-11.92 157.88-11.92L157.88-11.92L153.48-11.92L153.48 0L151.52 0L151.52-28.40L158-28.40Q160.24-28.40 162.30-27.52Q164.36-26.64 165.66-24.84Q166.96-23.04 166.96-20.36L166.96-20.36Q166.96-17.76 165.76-15.66Q164.56-13.56 162.04-12.60L162.04-12.60L169.72 0ZM157.76-13.80Q161.64-13.80 163.30-15.72Q164.96-17.64 164.96-20.28L164.96-20.28Q164.96-21.96 164.14-23.40Q163.32-24.84 161.80-25.68Q160.28-26.52 158.28-26.52L158.28-26.52L153.48-26.52L153.48-13.80L157.76-13.80Z M176.76-14.16Q176.76-18.08 178.72-21.42Q180.68-24.76 184-26.74Q187.32-28.72 191.24-28.72L191.24-28.72Q195.16-28.72 198.52-26.74Q201.88-24.76 203.84-21.42Q205.80-18.08 205.80-14.16L205.80-14.16Q205.80-10.24 203.84-6.90Q201.88-3.56 198.52-1.62Q195.16 0.32 191.24 0.32L191.24 0.32Q187.28 0.32 183.96-1.56Q180.64-3.44 178.70-6.76Q176.76-10.08 176.76-14.16L176.76-14.16ZM178.76-14.12Q178.76-10.72 180.44-7.84Q182.12-4.96 184.96-3.26Q187.80-1.56 191.20-1.56L191.20-1.56Q194.64-1.56 197.54-3.24Q200.44-4.92 202.12-7.82Q203.80-10.72 203.80-14.16L203.80-14.16Q203.80-17.60 202.10-20.50Q200.40-23.40 197.52-25.12Q194.64-26.84 191.24-26.84L191.24-26.84Q187.80-26.84 184.92-25.10Q182.04-23.36 180.40-20.44Q178.76-17.52 178.76-14.12L178.76-14.12Z M215.04-28.40L217.00-28.40L217.00 0L215.04 0L215.04-28.40Z M242.24-25.20Q240.80-25.88 239.04-26.36Q237.28-26.84 235.60-26.84L235.60-26.84Q232.80-26.84 231.12-25.46Q229.44-24.08 229.44-21.92L229.44-21.92Q229.44-20.40 230.34-19.34Q231.24-18.28 232.64-17.58Q234.04-16.88 236.24-16.04L236.24-16.04Q238.64-15.16 240.22-14.24Q241.80-13.32 242.88-11.74Q243.96-10.16 243.96-7.68L243.96-7.68Q243.96-5.32 242.84-3.50Q241.72-1.68 239.70-0.68Q237.68 0.32 235.08 0.32L235.08 0.32Q230.56 0.32 226.12-2.60L226.12-2.60L227.04-4.20Q228.52-3.08 230.68-2.24Q232.84-1.40 234.88-1.40L234.88-1.40Q236.68-1.40 238.30-2.10Q239.92-2.80 240.94-4.22Q241.96-5.64 241.96-7.64L241.96-7.64Q241.96-9.52 241.02-10.80Q240.08-12.08 238.66-12.86Q237.24-13.64 235.08-14.44L235.08-14.44Q232.68-15.32 231.12-16.14Q229.56-16.96 228.50-18.32Q227.44-19.68 227.44-21.72L227.44-21.72Q227.44-23.72 228.46-25.26Q229.48-26.80 231.30-27.66Q233.12-28.52 235.36-28.56L235.36-28.56Q237.28-28.56 239.34-28.04Q241.40-27.52 243.00-26.72L243.00-26.72L242.24-25.20Z M267.48-25.20Q266.04-25.88 264.28-26.36Q262.52-26.84 260.84-26.84L260.84-26.84Q258.04-26.84 256.36-25.46Q254.68-24.08 254.68-21.92L254.68-21.92Q254.68-20.40 255.58-19.34Q256.48-18.28 257.88-17.58Q259.28-16.88 261.48-16.04L261.48-16.04Q263.88-15.16 265.46-14.24Q267.04-13.32 268.12-11.74Q269.20-10.16 269.20-7.68L269.20-7.68Q269.20-5.32 268.08-3.50Q266.96-1.68 264.94-0.68Q262.92 0.32 260.32 0.32L260.32 0.32Q255.80 0.32 251.36-2.60L251.36-2.60L252.28-4.20Q253.76-3.08 255.92-2.24Q258.08-1.40 260.12-1.40L260.12-1.40Q261.92-1.40 263.54-2.10Q265.16-2.80 266.18-4.22Q267.20-5.64 267.20-7.64L267.20-7.64Q267.20-9.52 266.26-10.80Q265.32-12.08 263.90-12.86Q262.48-13.64 260.32-14.44L260.32-14.44Q257.92-15.32 256.36-16.14Q254.80-16.96 253.74-18.32Q252.68-19.68 252.68-21.72L252.68-21.72Q252.68-23.72 253.70-25.26Q254.72-26.80 256.54-27.66Q258.36-28.52 260.60-28.56L260.60-28.56Q262.52-28.56 264.58-28.04Q266.64-27.52 268.24-26.72L268.24-26.72L267.48-25.20Z M298 0L294.28-9.40L281.76-9.40L278 0L276.04 0L288.04-29.64L288.20-29.64L300.20 0L298 0ZM282.48-11.24L293.56-11.24L288.08-25.20L282.48-11.24Z M330.72-28.40L332.60-28.40L332.60 0.68L332.52 0.68L310.64-23.96L310.68 0L308.76 0L308.76-29L308.88-29L330.76-4.16L330.72-28.40Z M341.36-28.40L359.96-28.40L359.96-26.52L351.60-26.52L351.60 0L349.64 0L349.64-26.52L341.36-26.52L341.36-28.40Z M382.92-25.20Q381.48-25.88 379.72-26.36Q377.96-26.84 376.28-26.84L376.28-26.84Q373.48-26.84 371.80-25.46Q370.12-24.08 370.12-21.92L370.12-21.92Q370.12-20.40 371.02-19.34Q371.92-18.28 373.32-17.58Q374.72-16.88 376.92-16.04L376.92-16.04Q379.32-15.16 380.90-14.24Q382.48-13.32 383.56-11.74Q384.64-10.16 384.64-7.68L384.64-7.68Q384.64-5.32 383.52-3.50Q382.40-1.68 380.38-0.68Q378.36 0.32 375.76 0.32L375.76 0.32Q371.24 0.32 366.80-2.60L366.80-2.60L367.72-4.20Q369.20-3.08 371.36-2.24Q373.52-1.40 375.56-1.40L375.56-1.40Q377.36-1.40 378.98-2.10Q380.60-2.80 381.62-4.22Q382.64-5.64 382.64-7.64L382.64-7.64Q382.64-9.52 381.70-10.80Q380.76-12.08 379.34-12.86Q377.92-13.64 375.76-14.44L375.76-14.44Q373.36-15.32 371.80-16.14Q370.24-16.96 369.18-18.32Q368.12-19.68 368.12-21.72L368.12-21.72Q368.12-23.72 369.14-25.26Q370.16-26.80 371.98-27.66Q373.80-28.52 376.04-28.56L376.04-28.56Q377.96-28.56 380.02-28.04Q382.08-27.52 383.68-26.72L383.68-26.72L382.92-25.20Z"/></g>
</svg>
</g><g opacity="1" transform="rotate(0 506.8739 446.9554)">
<svg width="94.7727" height="120" x="506.8739" y="446.9554" version="1.1" preserveAspectRatio="none" viewBox="2.68 -25.44 27.8 35.2">
  <g transform="matrix(1 0 0 1 0 0)" class="companyName"><path id="id-D6z1nYkh2" d="M5.52-20.16Q5.52-18.56 6.28-17.40Q7.04-16.24 8.14-15.46Q9.24-14.68 11.20-13.52L11.20-13.52Q13.28-12.28 14.42-11.46Q15.56-10.64 16.38-9.36Q17.20-8.08 17.20-6.28L17.20-6.28Q17.20-4.40 16.28-2.86Q15.36-1.32 13.54-0.42Q11.72 0.48 9.08 0.48L9.08 0.48Q7.68 0.48 6.42 0.18Q5.16-0.12 3.64-0.88L3.64-0.88Q3.44-1 3.38-1.16Q3.32-1.32 3.28-1.64L3.28-1.64L2.68-6.84L2.68-6.88Q2.68-7.04 2.88-7.06Q3.08-7.08 3.12-6.92L3.12-6.92Q3.52-4.16 5.24-2.12Q6.96-0.08 9.96-0.08L9.96-0.08Q12.08-0.08 13.54-1.24Q15-2.40 15-4.88L15-4.88Q15-6.68 14.20-7.98Q13.40-9.28 12.26-10.14Q11.12-11 9.16-12.16L9.16-12.16Q7.24-13.28 6.14-14.12Q5.04-14.96 4.26-16.22Q3.48-17.48 3.48-19.24L3.48-19.24Q3.48-21.24 4.50-22.64Q5.52-24.04 7.16-24.74Q8.80-25.44 10.68-25.44L10.68-25.44Q12.88-25.44 15.24-24.48L15.24-24.48Q15.84-24.24 15.84-23.80L15.84-23.80L16.20-19.56Q16.20-19.40 15.98-19.40Q15.76-19.40 15.72-19.56L15.72-19.56Q15.56-21.64 14.16-23.28Q12.76-24.92 10.16-24.92L10.16-24.92Q7.76-24.92 6.64-23.52Q5.52-22.12 5.52-20.16L5.52-20.16Z M30.40-25Q30.48-25 30.48-24.76Q30.48-24.52 30.40-24.52L30.40-24.52Q29.04-24.52 28.40-24.28Q27.76-24.04 27.54-23.46Q27.32-22.88 27.32-21.68L27.32-21.68L27.32 1.36Q27.32 5.20 25.58 7.48Q23.84 9.76 20.48 9.76L20.48 9.76Q19.16 9.76 18.42 9.34Q17.68 8.92 17.68 8.24L17.68 8.24Q17.68 7.72 17.98 7.40Q18.28 7.08 18.84 7.08L18.84 7.08Q19.44 7.08 19.76 7.32Q20.08 7.56 20.48 8.04L20.48 8.04Q20.80 8.52 21.12 8.76Q21.44 9 22.00 9L22.00 9Q23.56 9 24.36 7.26Q25.16 5.52 25.16 1.72L25.16 1.72L25.16-21.76Q25.16-22.96 24.86-23.52Q24.56-24.08 23.72-24.30Q22.88-24.52 21.08-24.52L21.08-24.52Q21.00-24.52 21.00-24.76Q21.00-25 21.08-25L21.08-25L23.36-24.96Q25.20-24.88 26.20-24.88L26.20-24.88Q27.20-24.88 28.72-24.96L28.72-24.96L30.40-25Z"/></g>
</svg>
</g></svg></svg>