<svg version="1.1" preserveAspectRatio="none" xmlns="http://www.w3.org/2000/svg" width="500" height="500" viewBox="0 0 500 500"><rect width="100%" height="100%" fill="#FFFFFF" fill-opacity="1"/><svg viewBox="121.1096 718.7472 263.8406 305.7372" width="287.36745086957035" height="333" x="106.3163px" y="83.5px" xmlns="http://www.w3.org/2000/svg" xmlns:xlink="http://www.w3.org/1999/xlink" preserveAspectRatio="none"><defs></defs><style>.companyName {fill:#1C1C1C;fill-opacity:1;}.icon1 {fill:#1C1C1C;fill-opacity:1;}.icon2 {fill:#BAAE57;fill-opacity:1;}.icon3 {fill:#E192BB;fill-opacity:1;}.icon3-str {stroke:#E192BB;stroke-opacity:1;}.text {fill:#1C1C1C;fill-opacity:1;}</style><g opacity="1" transform="rotate(0 121.1096 1005.2844)">
<svg width="263.8406" height="19.2" x="121.1096" y="1005.2844" version="1.1" preserveAspectRatio="none" viewBox="4.32 -26.8 373.72 27.2">
  <g transform="matrix(1 0 0 1 0 0)" class="text"><path id="id-6izo4zJp15" d="M4.32 0L4.32-26.40L13.72-26.40Q18.28-26.40 20.50-24.50Q22.72-22.60 22.72-19.12L22.72-19.12Q22.72-17.04 21.54-15.44Q20.36-13.84 18.28-13.44L18.28-13.44L18.28-13.40Q20.60-12.96 22-11.28Q23.40-9.60 23.40-7.40L23.40-7.40Q23.40-4 20.84-2Q18.28 0 13.68 0L13.68 0L4.32 0ZM7.52-14.80L13.76-14.80Q16.60-14.80 17.98-15.86Q19.36-16.92 19.36-19.12L19.36-19.12Q19.36-23.40 13.76-23.40L13.76-23.40L7.52-23.40L7.52-14.80ZM7.52-3L14.44-3Q17.24-3 18.64-4.14Q20.04-5.28 20.04-7.40L20.04-7.40Q20.04-9.52 18.64-10.66Q17.24-11.80 14.44-11.80L14.44-11.80L7.52-11.80L7.52-3Z M34.84-3L50.76-3L50.76 0L31.64 0L31.64-26.40L50.16-26.40L50.16-23.40L34.84-23.40L34.84-14.88L46.76-14.88L46.76-11.88L34.84-11.88L34.84-3Z M66.84-26.80Q73.92-26.80 77.04-21.20L77.04-21.20L74.28-18.96Q73.08-21.60 71.42-22.70Q69.76-23.80 66.88-23.80L66.88-23.80Q63.84-23.80 62.10-22.54Q60.36-21.28 60.36-19.32L60.36-19.32Q60.36-18.04 61.04-17.20Q61.72-16.36 63.30-15.74Q64.88-15.12 67.68-14.64L67.68-14.64Q72.92-13.76 75.10-12Q77.28-10.24 77.28-7.12L77.28-7.12Q77.28-4.88 76.02-3.18Q74.76-1.48 72.44-0.54Q70.12 0.40 67.08 0.40L67.08 0.40Q63.08 0.40 60.26-1.16Q57.44-2.72 55.96-5.32L55.96-5.32L58.72-7.56Q59.80-5.20 61.90-3.90Q64-2.60 67.16-2.60L67.16-2.60Q70.28-2.60 72.12-3.74Q73.96-4.88 73.96-6.96L73.96-6.96Q73.96-8.72 72.36-9.76Q70.76-10.80 66.68-11.52L66.68-11.52Q61.40-12.44 59.20-14.16Q57.00-15.88 57.00-18.96L57.00-18.96Q57.00-21.08 58.20-22.88Q59.40-24.68 61.64-25.74Q63.88-26.80 66.84-26.80L66.84-26.80Z M102.56-26.40L102.56-23.40L93.36-23.40L93.36 0L90.16 0L90.16-23.40L80.96-23.40L80.96-26.40L102.56-26.40Z M144.40-6.76Q143.16-3.40 140.32-1.50Q137.48 0.40 133.76 0.40L133.76 0.40Q130.04 0.40 127.28-1.26Q124.52-2.92 123.02-5.98Q121.52-9.04 121.52-13.20L121.52-13.20Q121.52-17.32 123.02-20.40Q124.52-23.48 127.28-25.14Q130.04-26.80 133.68-26.80L133.68-26.80Q137.48-26.80 140.06-25.24Q142.64-23.68 143.92-20.64L143.92-20.64L140.76-19.16Q139.88-21.48 138.20-22.64Q136.52-23.80 133.92-23.80L133.92-23.80Q131.20-23.80 129.16-22.54Q127.12-21.28 126.00-18.88Q124.88-16.48 124.88-13.20L124.88-13.20Q124.88-8.24 127.26-5.42Q129.64-2.60 133.76-2.60L133.76-2.60Q136.44-2.60 138.40-3.96Q140.36-5.32 141.20-7.96L141.20-7.96L144.40-6.76Z M168.48 0L161.28-10.96L154.96-10.96L154.96 0L151.76 0L151.76-26.40L161.76-26.40Q165.80-26.40 168.24-24.32Q170.68-22.24 170.68-18.68L170.68-18.68Q170.68-15.88 169.12-13.96Q167.56-12.04 164.84-11.32L164.84-11.32L172.28 0L168.48 0ZM154.96-23.40L154.96-13.96L161.72-13.96Q167.32-13.96 167.32-18.68L167.32-18.68Q167.32-23.40 161.72-23.40L161.72-23.40L154.96-23.40Z M189.96-26.80Q193.68-26.80 196.44-25.14Q199.20-23.48 200.70-20.42Q202.20-17.36 202.20-13.20L202.20-13.20Q202.20-9.04 200.70-5.98Q199.20-2.92 196.44-1.26Q193.68 0.40 189.96 0.40L189.96 0.40Q186.24 0.40 183.48-1.26Q180.72-2.92 179.22-5.98Q177.72-9.04 177.72-13.20L177.72-13.20Q177.72-17.36 179.22-20.42Q180.72-23.48 183.48-25.14Q186.24-26.80 189.96-26.80L189.96-26.80ZM189.96-23.80Q185.84-23.80 183.46-20.98Q181.08-18.16 181.08-13.20L181.08-13.20Q181.08-8.24 183.46-5.42Q185.84-2.60 189.96-2.60L189.96-2.60Q194.08-2.60 196.46-5.42Q198.84-8.24 198.84-13.20L198.84-13.20Q198.84-18.16 196.46-20.98Q194.08-23.80 189.96-23.80L189.96-23.80Z M213.64-26.40L213.64 0L210.44 0L210.44-26.40L213.64-26.40Z M231.96-26.80Q239.04-26.80 242.16-21.20L242.16-21.20L239.40-18.96Q238.20-21.60 236.54-22.70Q234.88-23.80 232.00-23.80L232.00-23.80Q228.96-23.80 227.22-22.54Q225.48-21.28 225.48-19.32L225.48-19.32Q225.48-18.04 226.16-17.20Q226.84-16.36 228.42-15.74Q230.00-15.12 232.80-14.64L232.80-14.64Q238.04-13.76 240.22-12Q242.40-10.24 242.40-7.12L242.40-7.12Q242.40-4.88 241.14-3.18Q239.88-1.48 237.56-0.54Q235.24 0.40 232.20 0.40L232.20 0.40Q228.20 0.40 225.38-1.16Q222.56-2.72 221.08-5.32L221.08-5.32L223.84-7.56Q224.92-5.20 227.02-3.90Q229.12-2.60 232.28-2.60L232.28-2.60Q235.40-2.60 237.24-3.74Q239.08-4.88 239.08-6.96L239.08-6.96Q239.08-8.72 237.48-9.76Q235.88-10.80 231.80-11.52L231.80-11.52Q226.52-12.44 224.32-14.16Q222.12-15.88 222.12-18.96L222.12-18.96Q222.12-21.08 223.32-22.88Q224.52-24.68 226.76-25.74Q229.00-26.80 231.96-26.80L231.96-26.80Z M258.80-26.80Q265.88-26.80 269.00-21.20L269.00-21.20L266.24-18.96Q265.04-21.60 263.38-22.70Q261.72-23.80 258.84-23.80L258.84-23.80Q255.80-23.80 254.06-22.54Q252.32-21.28 252.32-19.32L252.32-19.32Q252.32-18.04 253.00-17.20Q253.68-16.36 255.26-15.74Q256.84-15.12 259.64-14.64L259.64-14.64Q264.88-13.76 267.06-12Q269.24-10.24 269.24-7.12L269.24-7.12Q269.24-4.88 267.98-3.18Q266.72-1.48 264.40-0.54Q262.08 0.40 259.04 0.40L259.04 0.40Q255.04 0.40 252.22-1.16Q249.40-2.72 247.92-5.32L247.92-5.32L250.68-7.56Q251.76-5.20 253.86-3.90Q255.96-2.60 259.12-2.60L259.12-2.60Q262.24-2.60 264.08-3.74Q265.92-4.88 265.92-6.96L265.92-6.96Q265.92-8.72 264.32-9.76Q262.72-10.80 258.64-11.52L258.64-11.52Q253.36-12.44 251.16-14.16Q248.96-15.88 248.96-18.96L248.96-18.96Q248.96-21.08 250.16-22.88Q251.36-24.68 253.60-25.74Q255.84-26.80 258.80-26.80L258.80-26.80Z M294.44 0L291.64-7.32L279.68-7.32L276.88 0L273.52 0L283.80-26.40L287.60-26.40L297.84 0L294.44 0ZM280.84-10.32L290.48-10.32L286.92-19.68L285.68-23.36L285.60-23.36L284.44-19.80L280.84-10.32Z M325.12-26.40L325.12 0L321.16 0L310.12-17.68L307.32-22.88L307.28-22.88L307.44-18.64L307.44 0L304.40 0L304.40-26.40L308.36-26.40L319.36-8.80L322.20-3.52L322.24-3.52L322.08-7.76L322.08-26.40L325.12-26.40Z M353.52-26.40L353.52-23.40L344.32-23.40L344.32 0L341.12 0L341.12-23.40L331.92-23.40L331.92-26.40L353.52-26.40Z M367.60-26.80Q374.68-26.80 377.80-21.20L377.80-21.20L375.04-18.96Q373.84-21.60 372.18-22.70Q370.52-23.80 367.64-23.80L367.64-23.80Q364.60-23.80 362.86-22.54Q361.12-21.28 361.12-19.32L361.12-19.32Q361.12-18.04 361.80-17.20Q362.48-16.36 364.06-15.74Q365.64-15.12 368.44-14.64L368.44-14.64Q373.68-13.76 375.86-12Q378.04-10.24 378.04-7.12L378.04-7.12Q378.04-4.88 376.78-3.18Q375.52-1.48 373.20-0.54Q370.88 0.40 367.84 0.40L367.84 0.40Q363.84 0.40 361.02-1.16Q358.20-2.72 356.72-5.32L356.72-5.32L359.48-7.56Q360.56-5.20 362.66-3.90Q364.76-2.60 367.92-2.60L367.92-2.60Q371.04-2.60 372.88-3.74Q374.72-4.88 374.72-6.96L374.72-6.96Q374.72-8.72 373.12-9.76Q371.52-10.80 367.44-11.52L367.44-11.52Q362.16-12.44 359.96-14.16Q357.76-15.88 357.76-18.96L357.76-18.96Q357.76-21.08 358.96-22.88Q360.16-24.68 362.40-25.74Q364.64-26.80 367.60-26.80L367.60-26.80Z"/></g>
</svg>
</g><g opacity="1" transform="rotate(0 153.7487 863.2844)">
<svg width="198.5624" height="120" x="153.7487" y="863.2844" version="1.1" preserveAspectRatio="none" viewBox="2.4 -22.8 38.72 23.4">
  <g transform="matrix(1 0 0 1 0 0)" class="companyName"><path id="id-D6z1nYkh2" d="M3.20 0L3.20 0L2.40 0L2.40-9.32L3.20-9.32Q3.20-5.56 5.90-2.92Q8.60-0.28 12.48-0.28L12.48-0.28Q14.08-0.28 15.06-1.22Q16.04-2.16 16.04-3.72L16.04-3.72Q16.04-5.48 13.76-6.72L13.76-6.72Q12.52-7.36 9.48-8.74Q6.44-10.12 5.20-11.08L5.20-11.08Q2.72-13 3.02-16.16Q3.32-19.32 5.40-21.06Q7.48-22.80 10.10-22.80Q12.72-22.80 14.82-22.10Q16.92-21.40 17.20-21.40L17.20-21.40Q18-21.40 18-22.80L18-22.80L18.80-22.80L18.80-15.48L18-15.48Q18-18.36 15.88-20.18Q13.76-22 10.44-22L10.44-22Q8.96-22 8.12-21.14Q7.28-20.28 7.28-19.24Q7.28-18.20 7.56-17.64Q7.84-17.08 8.54-16.62Q9.24-16.16 9.76-15.88Q10.28-15.60 11.42-15.12Q12.56-14.64 13-14.44L13-14.44Q15.20-13.44 15.60-13.26Q16-13.08 16.76-12.68Q17.52-12.28 17.90-11.96Q18.28-11.64 18.88-11.16Q19.48-10.68 19.76-10.18Q20.04-9.68 20.32-9.04L20.32-9.04Q20.88-7.76 20.72-6.04L20.72-6.04Q20.40-2.80 18.30-1.10Q16.20 0.60 12.64 0.60L12.64 0.60Q9.44 0.60 6.28-1.04L6.28-1.04Q5.20-1.60 4.68-1.60L4.68-1.60Q3.20-1.60 3.20 0Z M29.68 0L29.68 0Q26.52 0 24.62-1.44Q22.72-2.88 22.72-5.60L22.72-5.60Q22.72-7.08 23.66-8.18Q24.60-9.28 25.92-9.28Q27.24-9.28 28.02-8.46Q28.80-7.64 28.80-6.40L28.80-6.40Q28.80-4.44 26.72-3.80L26.72-3.80Q26.48-3.72 26.06-3.62Q25.64-3.52 25.44-3.44L25.44-3.44Q24.92-3.32 24.92-2.68Q24.92-2.04 25.98-1.48Q27.04-0.92 28.36-0.92L28.36-0.92Q33.12-0.92 33.12-7.88L33.12-7.88L33.12-21.60L31.12-21.60L31.12-22.40L41.12-22.40L41.12-21.60L39.12-21.60L39.12-8.24Q39.12-4.36 36.76-2.18Q34.40 0 29.68 0Z"/></g>
</svg>
</g><g opacity="1" transform="rotate(0 153.7487 718.7472)">
<svg width="198.5624" height="104.5372" x="153.7487" y="718.7472" version="1.1" preserveAspectRatio="none" viewBox="20 58 160 84.23521423339844">
  <g transform="matrix(1 0 0 1 0 0)" ><g><path d="M158.929 110.472A50.137 50.137 0 0 1 180 117.06c-13.106 22.701-41.226 31.33-64.575 20.587 18.045-1.89 33.618-11.941 42.993-26.373l.34-.53.171-.272zm-10.159.209c-8.038 10.142-19.902 17.114-33.413 18.733a49.068 49.068 0 0 1 3.318-3.791 47.95 47.95 0 0 0 1.147-1.153c7.773-7.529 17.685-12.234 28.127-13.683l.821-.106zm-96.385-.329c10.215 1.487 19.905 6.092 27.557 13.412a58.804 58.804 0 0 0 1.6 1.598 48.631 48.631 0 0 1 2.499 2.825c-12.395-1.776-23.333-8.069-31.092-17.157l-.42-.498-.144-.18zm19.767-21.121c10.141 8.038 17.112 19.901 18.731 33.411a49.252 49.252 0 0 1-3.784-3.311c-.383-.393-.77-.78-1.164-1.159-7.527-7.772-12.23-17.683-13.679-28.123l-.09-.682-.014-.136zm55.496 1.683c-1.487 10.214-6.091 19.904-13.409 27.555a56.942 56.942 0 0 0-1.591 1.594 49.293 49.293 0 0 1-2.834 2.508c1.776-12.395 8.069-23.333 17.157-31.092l.498-.42.179-.145zm-27.562-8.05c4.768 11.919 4.955 25.553-.219 37.992-4.885-12.136-4.706-25.364-.18-37.004l.247-.622.152-.366zm59.548-3.421c0 8.158-1.941 15.862-5.387 22.674a58.787 58.787 0 0 0-22.713 4.842 58.834 58.834 0 0 0 4.814-21.817 50.117 50.117 0 0 1 23.286-5.699zM40.912 78.366c8.157 0 15.861 1.94 22.674 5.387a58.792 58.792 0 0 0 4.842 22.714 58.787 58.787 0 0 0-21.816-4.812 50.124 50.124 0 0 1-5.7-23.289zm80.511-19.835a50.136 50.136 0 0 1 6.652 21.949 58.795 58.795 0 0 0-16.43 15.791 58.778 58.778 0 0 0-6.73-22.395 50.114 50.114 0 0 1 16.508-15.345zM78.53 58c6.997 4.04 12.657 9.505 16.821 15.818a58.776 58.776 0 0 0-6.815 20.867 58.762 58.762 0 0 0-16.595-15.612A50.132 50.132 0 0 1 78.53 58z" data-color="1" class="icon1"></path><path d="M41.949 109.927l-.885.062A50.136 50.136 0 0 0 20 116.577c13.316 23.065 42.13 31.603 65.694 20.055-18.376-1.729-34.281-11.953-43.745-26.705z" data-color="2" class="icon2"></path><path opacity=".1" d="M119.822 124.47a47.95 47.95 0 0 1-1.147 1.153 49.068 49.068 0 0 0-3.318 3.791c13.511-1.619 25.375-8.591 33.413-18.733l-.821.106c-10.442 1.449-20.354 6.154-28.127 13.683z" data-color="2" class="icon2"></path><path opacity=".9" d="M52.949 111.03c7.759 9.088 18.697 15.381 31.092 17.157a48.631 48.631 0 0 0-2.499-2.825 58.804 58.804 0 0 1-1.6-1.598c-7.652-7.32-17.342-11.925-27.557-13.412l.144.18.42.498z" data-color="2" class="icon2"></path><path opacity=".7" d="M72.152 89.231l.014.136.09.682c1.449 10.44 6.152 20.351 13.679 28.123.394.379.781.766 1.164 1.159a49.252 49.252 0 0 0 3.784 3.311c-1.619-13.51-8.59-25.373-18.731-33.411z" data-color="2" class="icon2"></path><path opacity=".3" d="M127.469 91.059l-.498.42c-9.088 7.759-15.381 18.697-17.157 31.092a49.293 49.293 0 0 0 2.834-2.508 56.942 56.942 0 0 1 1.591-1.594c7.318-7.651 11.922-17.341 13.409-27.555l-.179.145z" data-color="2" class="icon2"></path><path opacity=".5" d="M99.934 83.23l-.247.622c-4.526 11.64-4.705 24.868.18 37.004 5.174-12.439 4.987-26.073.219-37.992l-.152.366z" data-color="2" class="icon2"></path><path opacity=".2" d="M136.348 85.142a58.834 58.834 0 0 1-4.814 21.817 58.787 58.787 0 0 1 22.713-4.842c3.446-6.812 5.387-14.516 5.387-22.674a50.117 50.117 0 0 0-23.286 5.699z" data-color="2" class="icon2"></path><path opacity=".8" d="M68.428 106.467a58.792 58.792 0 0 1-4.842-22.714c-6.813-3.447-14.517-5.387-22.674-5.387a50.124 50.124 0 0 0 5.7 23.289 58.787 58.787 0 0 1 21.816 4.812z" data-color="2" class="icon2"></path><path opacity=".4" d="M128.075 80.48a50.136 50.136 0 0 0-6.652-21.949 50.114 50.114 0 0 0-16.508 15.345 58.778 58.778 0 0 1 6.73 22.395 58.795 58.795 0 0 1 16.43-15.791z" data-color="2" class="icon2"></path><path opacity=".6" d="M78.53 58a50.132 50.132 0 0 0-6.589 21.073 58.762 58.762 0 0 1 16.595 15.612 58.776 58.776 0 0 1 6.815-20.867C91.187 67.505 85.527 62.04 78.53 58z" data-color="2" class="icon2"></path></g></g>
</svg>
</g></svg></svg>